<svg width="108" height="108" viewBox="0 0 108 108" fill="none" xmlns="http://www.w3.org/2000/svg">
<g filter="url(#filter0_d_36_30802)">
<circle cx="54" cy="50" r="48" stroke="#C17B54" stroke-width="4" shape-rendering="crispEdges"/>
</g>
<g filter="url(#filter1_i_36_30802)">
<circle cx="54" cy="50" r="36" stroke="#C17B54" stroke-width="4"/>
</g>
<g clip-path="url(#clip0_36_30802)">
<path d="M33.4531 53.8975V55.292L33.6125 55.4166C34.0643 55.7697 34.5982 55.9586 35.145 55.9586H40.2551L42.6126 56.7656H47.826C48.2339 56.7656 48.6251 56.5798 48.9136 56.2488H51.4748C51.8481 56.6771 52.3546 56.9178 52.8827 56.9178H61.4091C61.7263 56.9178 62.0304 56.7732 62.2546 56.516H64.879C65.2371 56.9268 65.7228 57.1576 66.2292 57.1576H73.7288L74.5735 56.1886H78.9093C79.3146 56.1886 79.7033 56.0039 79.9898 55.6753V53.8976L33.4531 53.8975Z" fill="#141414"/>
<path d="M74.3166 45.9412H71.126C70.4937 45.9412 69.8872 46.2293 69.4401 46.7422L68.8345 47.4369L73.7568 48.0941C73.6286 47.045 74.2353 46.3427 74.3964 46.1766C74.4212 46.1512 74.4349 46.1149 74.4349 46.0766C74.4348 46.0018 74.3818 45.9412 74.3166 45.9412Z" fill="#DE972C"/>
<path d="M29.6158 46.6377C28.6218 46.3992 27.6485 46.0611 26.7059 45.6299H26.2197L26.5127 47.3573C26.5439 47.5411 26.6842 47.6738 26.8475 47.6738H27.5808L30.2898 46.7995L29.6158 46.6377Z" fill="#DE972C"/>
<path d="M82.1699 49.9558L81.7938 52.1137L82.6633 52.4501L80.7926 55.6815H79.6221C79.5095 55.6815 79.4066 55.6054 79.3614 55.4862C79.3152 55.3682 79.2123 55.292 79.0998 55.292H33.4531L32.9174 54.9092L27.8747 54.5197L26.7908 53.7552C25.9108 53.133 25.374 52.0331 25.374 50.8471V49.9557C25.374 49.617 25.4529 49.2916 25.5972 49.0091C25.603 48.9981 25.6087 48.987 25.6155 48.976C25.6828 48.8481 25.7645 48.7289 25.8597 48.6219C25.9607 48.505 26.0771 48.4035 26.205 48.3196C26.3906 48.1982 26.5792 48.0835 26.7696 47.9731C28.1709 47.1623 29.6915 46.6504 31.2563 46.4639L33.7868 46.1616C34.4822 46.0788 35.167 45.9188 35.8316 45.6861C36.4751 45.4599 37.1012 45.1665 37.7003 44.8057L39.9182 43.4708C41.5889 42.4657 43.4037 41.8038 45.2764 41.5379C51.6781 40.6267 56.9842 41.4188 58.1653 41.6229C58.326 41.6505 58.477 41.7211 58.6068 41.8303L58.8684 42.0487L64.0861 46.4109H64.4631C64.8458 46.4109 65.2228 46.5124 65.5653 46.7087C65.6384 46.7496 65.7182 46.7738 65.799 46.7793L77.6185 47.4898C78.4091 47.5383 79.1929 47.6629 79.9624 47.8637C80.7318 48.0646 81.4859 48.3404 82.2169 48.69C82.3179 48.7374 82.4063 48.8069 82.4803 48.893C82.5419 48.9636 82.5919 49.0453 82.6304 49.1346C82.6804 49.2493 82.7102 49.3774 82.7141 49.5108C82.7151 49.523 82.7151 49.534 82.7151 49.5461V49.9555H82.1699V49.9558Z" fill="#F2A636"/>
<path d="M82.7139 49.5111C80.3566 48.9528 77.9453 48.6715 75.538 48.6715H47.6267C45.9321 48.6715 44.2268 48.4939 42.559 48.1453L42.2695 48.0857C39.8045 47.5705 37.2884 47.4392 34.7916 47.6985L25.8594 48.6219C25.9604 48.505 26.0767 48.4035 26.2046 48.3196C26.3902 48.1982 26.5788 48.0835 26.7692 47.9731L34.7492 47.149C37.2884 46.8854 39.8477 47.0188 42.3561 47.5429L42.6456 47.6035C44.2845 47.9455 45.9609 48.1199 47.6267 48.1199H75.538C77.8655 48.1199 80.196 48.3792 82.4803 48.8932C82.5418 48.9638 82.5919 49.0455 82.6303 49.1348C82.6803 49.2497 82.7101 49.3777 82.7139 49.5111Z" fill="#A36C20"/>
<path d="M82.6633 52.4501L80.7926 55.6815H79.6221C79.5095 55.6815 79.4066 55.6054 79.3614 55.4862C79.3152 55.3682 79.2123 55.292 79.0998 55.292H33.4531L32.9174 54.9092L27.8747 54.5197L26.7908 53.7552C25.9108 53.133 25.374 52.0331 25.374 50.8471V49.9557H82.1699L81.7938 52.1136L82.6633 52.4501Z" fill="#DE972C"/>
<path d="M31.4296 49.9558L30.3389 51.2068H40.7024L41.8192 49.9558H31.4296Z" fill="#DE9E3E"/>
<path d="M65.3876 49.9558L64.2969 51.2068H74.6603L75.7772 49.9558H65.3876Z" fill="#DE9E3E"/>
<path d="M25.8859 49.4064H25.3062C25.104 49.4064 24.9399 49.5945 24.9399 49.8265V51.816C24.9399 52.1683 25.0705 52.5039 25.2991 52.7392L26.7797 54.2633C26.9141 54.4016 27.0883 54.4781 27.2689 54.4781L27.8746 54.5198L26.5379 52.6297C26.3043 52.3067 26.1762 51.9003 26.1756 51.4805L26.1734 49.7356C26.1731 49.5536 26.0444 49.4064 25.8859 49.4064Z" fill="#EBEBEB"/>
<path d="M49.2046 46.651L48.8004 47.8721C48.7062 48.2189 48.6582 48.5801 48.6582 48.9434V53.913C48.6582 54.1426 48.8205 54.3288 49.0207 54.3288H65.3078" stroke="#141414" stroke-width="0.9628" stroke-miterlimit="10"/>
<path d="M64.4639 46.4111L65.1581 47.752C65.2587 47.9465 65.3167 48.1662 65.3269 48.392L65.4969 52.1625C65.5044 52.3282 65.5005 52.4944 65.4854 52.6596L65.225 55.4974" stroke="#141414" stroke-width="0.9628" stroke-miterlimit="10" stroke-linecap="round" stroke-linejoin="round"/>
<path d="M82.3567 49.9558C82.2941 49.9558 82.2327 49.9558 82.1721 49.9558L81.7432 52.417C83.0603 51.9535 82.7842 50.3618 82.3567 49.9558Z" fill="#161E30"/>
<path d="M81.6166 52.1135H82.499C82.8479 52.1135 83.1121 52.4751 83.0512 52.8692L82.9858 53.2918C82.9455 53.5527 82.8279 53.7897 82.653 53.9627L82.2893 54.3224C82.1746 54.436 82.0808 54.5748 82.0136 54.7306L81.7832 55.2654C81.6734 55.5201 81.4471 55.6813 81.1994 55.6813H79.9951L81.2703 53.3208L81.3076 52.4508C81.3157 52.262 81.4517 52.1135 81.6166 52.1135Z" fill="#EBEBEB"/>
<mask id="mask0_36_30802" style="mask-type:luminance" maskUnits="userSpaceOnUse" x="25" y="49" width="58" height="7">
<path d="M25.3774 49.8406C25.3754 49.8787 25.374 49.9172 25.374 49.9558V50.8472C25.374 52.0328 25.9103 53.1335 26.7907 53.7548L27.8747 54.5198L32.9174 54.9093L33.4531 55.2921H79.0997C79.2127 55.2921 79.3151 55.3685 79.361 55.4868C79.4069 55.6053 79.5094 55.6815 79.6223 55.6815H80.7927L82.7153 52.3608V49.8405H25.3774V49.8406Z" fill="white"/>
</mask>
<g mask="url(#mask0_36_30802)">
<path d="M33.5405 55.3238L35.1679 52.6692C36.0432 51.2412 37.4742 50.3778 38.9958 50.3592L41.0334 50.3346C42.8172 50.3346 44.2573 51.9369 44.3121 53.9824L44.3727 56.2474L33.5405 57.2046V55.3238Z" fill="#141414"/>
<path d="M41.0334 50.4347C41.8672 50.4347 42.6562 50.8015 43.2554 51.4675C43.8549 52.134 44.1991 53.0283 44.2248 53.9856L44.2828 56.1551L33.6277 57.0968V55.3556L35.2392 52.7269C36.0983 51.3253 37.503 50.4777 38.9967 50.4595L40.9987 50.435L41.0334 50.4347ZM41.0334 50.2344C41.0213 50.2344 41.009 50.2345 40.9969 50.2346L38.9949 50.2591C37.4411 50.278 35.9902 51.1536 35.0964 52.6115L33.4531 55.292V57.3128L44.4624 56.3399L44.3992 53.9794C44.3433 51.8908 42.8506 50.2344 41.0334 50.2344Z" fill="#EBEBEB"/>
</g>
<mask id="mask1_36_30802" style="mask-type:luminance" maskUnits="userSpaceOnUse" x="25" y="49" width="58" height="7">
<path d="M25.3774 49.8406C25.3754 49.8787 25.374 49.9172 25.374 49.9558V50.8472C25.374 52.0328 25.9103 53.1335 26.7907 53.7548L27.8747 54.5198L32.9174 54.9093L33.4531 55.2921H79.0997C79.2127 55.2921 79.3151 55.3685 79.361 55.4868C79.4069 55.6053 79.5094 55.6815 79.6223 55.6815H80.7927L82.7153 52.3608V49.8405H25.3774V49.8406Z" fill="white"/>
</mask>
<g mask="url(#mask1_36_30802)">
<path d="M66.0328 55.3232L67.62 52.6683C68.4732 51.241 69.8679 50.3778 71.3508 50.3593L73.3377 50.3347C75.076 50.3347 76.4794 51.9369 76.5329 53.9825L76.5919 56.2477L66.0327 57.2045V55.3232H66.0328Z" fill="#141414"/>
<path d="M73.3379 50.4347C74.149 50.4347 74.917 50.8009 75.5002 51.4658C76.085 52.1324 76.4208 53.0272 76.4458 53.9854L76.5025 56.1553L66.1202 57.0961V55.3541L67.6921 52.7248C68.5293 51.3244 69.8974 50.4775 71.3519 50.4593L73.3042 50.4348L73.3379 50.4347ZM73.3379 50.2344C73.3261 50.2344 73.3142 50.2345 73.3023 50.2346L71.35 50.2591C69.8348 50.278 68.4198 51.1536 67.5482 52.6115L65.9458 55.292V57.3128L76.6821 56.3399L76.6204 53.9794C76.5658 51.8908 75.1101 50.2344 73.3379 50.2344Z" fill="#EBEBEB"/>
</g>
<path d="M66.1362 55.3584L76.4641 55.4114L76.4617 55.2801L66.1823 55.2864L66.1362 55.3584Z" fill="#141414"/>
<path d="M33.688 55.2921L40.0829 54.8141L44.2413 55.2921L39.7173 55.4786L33.688 55.2921Z" fill="#141414"/>
<path d="M40.9481 59.2904C42.9059 58.3876 43.8549 55.8353 43.0678 53.5897C42.2808 51.3441 40.0557 50.2555 38.098 51.1583C36.1403 52.0611 35.1913 54.6134 35.9783 56.859C36.7654 59.1046 38.9904 60.1932 40.9481 59.2904Z" fill="#1F1F1F"/>
<path d="M40.9846 56.8992C41.7912 55.974 41.7912 54.4741 40.9846 53.5489C40.1781 52.6238 38.8704 52.6238 38.0639 53.5489C37.2573 54.4741 37.2573 55.974 38.0639 56.8992C38.8704 57.8243 40.1781 57.8243 40.9846 56.8992Z" fill="#3D3D3D"/>
<path d="M39.5245 56.583C40.1788 56.583 40.7091 55.9746 40.7091 55.2241C40.7091 54.4736 40.1788 53.8653 39.5245 53.8653C38.8702 53.8653 38.3398 54.4736 38.3398 55.2241C38.3398 55.9746 38.8702 56.583 39.5245 56.583Z" fill="#7A7A7A"/>
<path d="M40.1472 54.708C40.2385 54.708 40.3125 54.6231 40.3125 54.5184C40.3125 54.4137 40.2385 54.3288 40.1472 54.3288C40.0559 54.3288 39.9819 54.4137 39.9819 54.5184C39.9819 54.6231 40.0559 54.708 40.1472 54.708Z" fill="#474747"/>
<path d="M38.7368 54.5184C38.7368 54.6231 38.8108 54.708 38.9021 54.708C38.9934 54.708 39.0674 54.6231 39.0674 54.5184C39.0674 54.4137 38.9934 54.3288 38.9021 54.3288C38.8109 54.3287 38.7368 54.4137 38.7368 54.5184Z" fill="#474747"/>
<path d="M39.9814 55.9615C39.9814 56.0662 40.0554 56.1511 40.1467 56.1511C40.238 56.1511 40.312 56.0662 40.312 55.9615C40.312 55.8568 40.238 55.7719 40.1467 55.7719C40.0555 55.7718 39.9814 55.8568 39.9814 55.9615Z" fill="#474747"/>
<path d="M38.7368 55.9615C38.7368 56.0662 38.8108 56.1511 38.9021 56.1511C38.9934 56.1511 39.0674 56.0662 39.0674 55.9615C39.0674 55.8568 38.9934 55.7719 38.9021 55.7719C38.8109 55.7718 38.7368 55.8568 38.7368 55.9615Z" fill="#474747"/>
<path d="M38.9556 57.461L39.1688 55.6319L37.5742 55.8763V54.5718L39.1688 54.8162L38.9556 52.9873H40.0928L39.8798 54.8162L41.4742 54.5718V55.8763L39.8798 55.6319L40.0928 57.461H38.9556Z" fill="#7A7A7A"/>
<path d="M39.5243 52.8551C40.665 52.8551 41.5896 53.9157 41.5896 55.2241C41.5896 56.5324 40.6649 57.5931 39.5243 57.5931C38.3837 57.5931 37.459 56.5326 37.459 55.2241C37.459 53.9157 38.3836 52.8551 39.5243 52.8551ZM39.5243 52.4546C38.193 52.4546 37.1099 53.697 37.1099 55.2241C37.1099 56.7513 38.193 57.9936 39.5243 57.9936C40.8557 57.9936 41.9388 56.7513 41.9388 55.2241C41.9388 53.697 40.8556 52.4546 39.5243 52.4546Z" fill="#333333"/>
<path d="M39.5243 53.1555C40.5187 53.1555 41.3277 54.0835 41.3277 55.2241C41.3277 56.3648 40.5187 57.2928 39.5243 57.2928C38.5298 57.2928 37.7208 56.3648 37.7208 55.2241C37.7208 54.0835 38.5298 53.1555 39.5243 53.1555ZM39.5243 52.8551C38.3837 52.8551 37.459 53.9157 37.459 55.2241C37.459 56.5324 38.3837 57.5931 39.5243 57.5931C40.665 57.5931 41.5896 56.5326 41.5896 55.2241C41.5896 53.9157 40.6649 52.8551 39.5243 52.8551Z" fill="#BFBFBF"/>
<path d="M39.7456 55.2241H39.3033L39.0469 53.0238H40.0019L39.7456 55.2241Z" fill="#BFBFBF"/>
<path d="M39.5244 55.4778V54.9705L41.4426 54.6764V55.7718L39.5244 55.4778Z" fill="#BFBFBF"/>
<path d="M39.3033 55.2241H39.7456L40.0019 57.4245H39.0469L39.3033 55.2241Z" fill="#BFBFBF"/>
<path d="M39.5242 54.9705V55.4778L37.606 55.7718V54.6764L39.5242 54.9705Z" fill="#BFBFBF"/>
<path d="M39.2607 55.2241C39.2607 55.3909 39.3786 55.5262 39.524 55.5262C39.6695 55.5262 39.7874 55.3909 39.7874 55.2241C39.7874 55.0573 39.6696 54.922 39.524 54.922C39.3787 54.922 39.2607 55.0573 39.2607 55.2241Z" fill="#525252"/>
<path d="M40.9846 56.8992C41.7912 55.974 41.7912 54.4741 40.9846 53.5489C40.1781 52.6238 38.8704 52.6238 38.0639 53.5489C37.2573 54.4741 37.2573 55.974 38.0639 56.8992C38.8704 57.8243 40.1781 57.8243 40.9846 56.8992Z" stroke="#2B2B2B" stroke-width="0.4814" stroke-miterlimit="10"/>
<path d="M72.4493 59.5511C74.5328 59.1684 75.9513 56.9208 75.6177 54.531C75.2841 52.1411 73.3247 50.5139 71.2412 50.8966C69.1577 51.2793 67.7392 53.5268 68.0728 55.9167C68.4064 58.3066 70.3658 59.9337 72.4493 59.5511Z" fill="#1F1F1F"/>
<path d="M72.2343 57.5524C73.3546 57.306 74.0886 56.0646 73.8738 54.7797C73.659 53.4947 72.5768 52.6528 71.4565 52.8992C70.3363 53.1455 69.6023 54.3869 69.8171 55.6718C70.0319 56.9568 71.1141 57.7987 72.2343 57.5524Z" fill="#3D3D3D"/>
<path d="M71.8468 56.583C72.501 56.583 73.0314 55.9746 73.0314 55.2241C73.0314 54.4736 72.501 53.8653 71.8468 53.8653C71.1925 53.8653 70.6621 54.4736 70.6621 55.2241C70.6621 55.9746 71.1925 56.583 71.8468 56.583Z" fill="#7A7A7A"/>
<path d="M72.3037 54.5184C72.3037 54.6231 72.3777 54.708 72.469 54.708C72.5603 54.708 72.6343 54.6231 72.6343 54.5184C72.6343 54.4137 72.5603 54.3288 72.469 54.3288C72.3778 54.3287 72.3037 54.4137 72.3037 54.5184Z" fill="#474747"/>
<path d="M71.0591 54.5184C71.0591 54.6231 71.1331 54.708 71.2244 54.708C71.3157 54.708 71.3897 54.6231 71.3897 54.5184C71.3897 54.4137 71.3157 54.3288 71.2244 54.3288C71.1331 54.3287 71.0591 54.4137 71.0591 54.5184Z" fill="#474747"/>
<path d="M72.3037 55.9615C72.3037 56.0662 72.3777 56.1511 72.469 56.1511C72.5603 56.1511 72.6343 56.0662 72.6343 55.9615C72.6343 55.8568 72.5603 55.7719 72.469 55.7719C72.3778 55.7718 72.3037 55.8568 72.3037 55.9615Z" fill="#474747"/>
<path d="M71.0591 55.9615C71.0591 56.0662 71.1331 56.1511 71.2244 56.1511C71.3157 56.1511 71.3897 56.0662 71.3897 55.9615C71.3897 55.8568 71.3157 55.7719 71.2244 55.7719C71.1331 55.7718 71.0591 55.8568 71.0591 55.9615Z" fill="#474747"/>
<path d="M71.2779 57.461L71.491 55.6319L69.8965 55.8763V54.5718L71.491 54.8162L71.2779 52.9873H72.4151L72.202 54.8162L73.7965 54.5718V55.8763L72.202 55.6319L72.4151 57.461H71.2779Z" fill="#7A7A7A"/>
<path d="M71.8466 52.8551C72.9872 52.8551 73.9119 53.9157 73.9119 55.2241C73.9119 56.5324 72.9873 57.5931 71.8466 57.5931C70.7059 57.5931 69.7813 56.5326 69.7813 55.2241C69.7813 53.9157 70.7059 52.8551 71.8466 52.8551ZM71.8466 52.4546C70.5152 52.4546 69.4321 53.697 69.4321 55.2241C69.4321 56.7513 70.5152 57.9936 71.8466 57.9936C73.1779 57.9936 74.261 56.7513 74.261 55.2241C74.261 53.697 73.1779 52.4546 71.8466 52.4546Z" fill="#333333"/>
<path d="M71.8465 53.1555C72.841 53.1555 73.65 54.0835 73.65 55.2241C73.65 56.3648 72.841 57.2928 71.8465 57.2928C70.8521 57.2928 70.0431 56.3648 70.0431 55.2241C70.0431 54.0835 70.8521 53.1555 71.8465 53.1555ZM71.8465 52.8551C70.706 52.8551 69.7812 53.9157 69.7812 55.2241C69.7812 56.5324 70.706 57.5931 71.8465 57.5931C72.9871 57.5931 73.9118 56.5326 73.9118 55.2241C73.9118 53.9157 72.9871 52.8551 71.8465 52.8551Z" fill="#BFBFBF"/>
<path d="M72.0678 55.2241H71.6255L71.3691 53.0238H72.3241L72.0678 55.2241Z" fill="#BFBFBF"/>
<path d="M71.8467 55.4778V54.9705L73.7649 54.6764V55.7718L71.8467 55.4778Z" fill="#BFBFBF"/>
<path d="M71.6255 55.2241H72.0678L72.3241 57.4245H71.3691L71.6255 55.2241Z" fill="#BFBFBF"/>
<path d="M71.8465 54.9705V55.4778L69.9282 55.7718V54.6764L71.8465 54.9705Z" fill="#BFBFBF"/>
<path d="M71.8464 55.5262C71.9919 55.5262 72.1098 55.391 72.1098 55.2241C72.1098 55.0573 71.9919 54.922 71.8464 54.922C71.7009 54.922 71.583 55.0573 71.583 55.2241C71.583 55.391 71.7009 55.5262 71.8464 55.5262Z" fill="#525252"/>
<path d="M72.2343 57.5524C73.3546 57.306 74.0886 56.0646 73.8738 54.7797C73.659 53.4947 72.5768 52.6528 71.4565 52.8992C70.3363 53.1455 69.6023 54.3869 69.8171 55.6718C70.0319 56.9568 71.1141 57.7987 72.2343 57.5524Z" stroke="#2B2B2B" stroke-width="0.4814" stroke-miterlimit="10"/>
<path d="M66.249 54.922H44.3511L44.4344 55.292H65.9458L66.249 54.922Z" fill="#EBEBEB"/>
<path d="M64.0861 46.4111L62.4202 46.3735L62.1442 46.368C62.1404 46.368 62.1375 46.368 62.1336 46.3669H62.1182C62.0529 46.3657 61.9903 46.3348 61.9441 46.283L61.9307 46.2676C61.9288 46.2665 61.9269 46.2643 61.9249 46.2621L58.3163 42.1901C58.2702 42.1382 58.3019 42.0489 58.3663 42.0489H58.8155C58.8501 42.0489 58.8838 42.0611 58.9117 42.0853L59.0002 42.1592L63.9477 46.2952L64.0823 46.4077L64.0861 46.4111Z" fill="#161E30"/>
<path d="M63.9478 46.2952L62.1464 46.2577C62.0887 46.2555 62.0339 46.2301 61.9925 46.1827L58.4252 42.1592H59.0004L58.9119 42.0853C58.884 42.0611 58.8504 42.0489 58.8157 42.0489H58.3233C58.2743 42.0489 58.2503 42.1162 58.2849 42.1559L61.9252 46.2621C61.9272 46.2643 61.9291 46.2665 61.931 46.2676C61.9859 46.3283 62.059 46.3625 62.134 46.367C62.1378 46.3681 62.1407 46.3681 62.1446 46.3681L62.4206 46.3736L64.0826 46.4078L63.9478 46.2952Z" fill="#EBEBEB"/>
<path d="M50.1869 46.7761C50.168 46.7761 50.1518 46.7598 50.1494 46.7381L49.6712 42.3499C49.6698 42.3377 49.673 42.3258 49.6798 42.3165C49.6867 42.3071 49.6963 42.3017 49.7069 42.3012L53.6139 42.0991L57.6908 42.0992C57.7006 42.0992 57.7099 42.1036 57.717 42.1113L61.8715 46.7016C61.8885 46.7205 61.8826 46.7427 61.8804 46.7491C61.8781 46.7554 61.869 46.7762 61.8453 46.7762L50.1869 46.7761Z" fill="#161E30"/>
<path d="M57.6887 42.1491L61.8311 46.726H50.1922L49.7154 42.3508L53.6122 42.1491H57.6887ZM57.6911 42.049H53.6122L49.7052 42.2511C49.6578 42.2535 49.6222 42.3019 49.6281 42.356L50.1063 46.7443C50.1113 46.791 50.146 46.8261 50.187 46.8261H61.8456C61.9189 46.8261 61.9548 46.7238 61.9021 46.6654L57.7476 42.0752C57.7324 42.0584 57.7122 42.049 57.6911 42.049Z" fill="#EBEBEB"/>
<path d="M49.8846 46.7891L49.371 42.4111C49.3667 42.3748 49.3368 42.3501 49.3055 42.3569L46.7962 42.9017C45.5505 43.1721 44.5185 44.1699 44.0753 45.5324C44.0632 45.5697 44.0836 45.6106 44.1177 45.6175L49.8846 46.7891Z" fill="#161E30" stroke="#EBEBEB" stroke-width="0.9628" stroke-miterlimit="10" stroke-linecap="round" stroke-linejoin="round"/>
<path d="M59.0993 45.39C59.4622 45.39 59.8239 45.4523 60.1742 45.575L60.4373 45.6673C60.5234 45.6974 60.5837 45.7982 60.5837 45.9122C60.5837 46.026 60.5235 46.1265 60.4376 46.1569L60.1815 46.2472C59.8298 46.3712 59.4664 46.4342 59.0993 46.4342C59.0638 46.4342 59.0352 46.3976 59.0352 46.3525V45.4717C59.0352 45.4265 59.0639 45.39 59.0993 45.39Z" fill="#F2A636"/>
<path d="M60.5532 46.685C60.2012 46.5792 60.0099 46.2409 60.0099 46.2409L59.4434 46.09V46.4221C59.4434 46.5369 59.3624 46.6299 59.2623 46.6299H59.197C59.0677 46.6299 58.9629 46.7501 58.9629 46.8984H60.6944V46.8981C60.6944 46.7988 60.637 46.7102 60.5532 46.685Z" fill="#F2A636"/>
<path d="M60.5529 46.6851C60.6367 46.7104 60.6941 46.7989 60.6941 46.8982H60.5691C60.088 46.8063 59.8248 46.3411 59.8248 46.3411L59.4434 46.2395V46.0902L60.0097 46.2409C60.0097 46.2409 60.2011 46.5792 60.5529 46.6851Z" fill="#DE972C"/>
<path d="M60.5823 45.9261C60.5775 46.0339 60.5204 46.1278 60.4381 46.1568L60.182 46.2471C59.8302 46.3711 59.4669 46.434 59.0997 46.434C59.0643 46.434 59.0356 46.3975 59.0356 46.3524V45.9261H60.5823Z" fill="#DE972C"/>
<path d="M27.2805 52.3766C27.237 52.3766 27.2017 52.3359 27.2017 52.286V51.6403C27.2017 51.5903 27.237 51.5497 27.2805 51.5497H28.3873C28.4308 51.5497 28.4663 51.5904 28.4663 51.6403V52.286C28.4663 52.3359 28.4308 52.3766 28.3873 52.3766H27.2805Z" fill="#C14833"/>
<path d="M28.3872 51.5997C28.4066 51.5997 28.4224 51.6179 28.4224 51.6402V52.286C28.4224 52.3084 28.4066 52.3265 28.3872 52.3265H27.2803C27.2608 52.3265 27.245 52.3083 27.245 52.286V51.6402C27.245 51.6178 27.2609 51.5997 27.2803 51.5997H28.3872ZM28.3872 51.4996H27.2803C27.2126 51.4996 27.1577 51.5625 27.1577 51.6402V52.286C27.1577 52.3637 27.2126 52.4266 27.2803 52.4266H28.3871C28.4548 52.4266 28.5096 52.3637 28.5096 52.286V51.6402C28.5096 51.5626 28.4548 51.4996 28.3872 51.4996Z" fill="#EBEBEB"/>
<path d="M79.4363 53.2686C79.3929 53.2686 79.3574 53.228 79.3574 53.178V52.5323C79.3574 52.4824 79.3929 52.4417 79.4363 52.4417H80.5431C80.5867 52.4417 80.622 52.4824 80.622 52.5323V53.178C80.622 53.228 80.5866 53.2686 80.5431 53.2686H79.4363Z" fill="#C14833"/>
<path d="M80.5428 52.4917C80.5623 52.4917 80.5781 52.5098 80.5781 52.5322V53.178C80.5781 53.2004 80.5622 53.2185 80.5428 53.2185H79.4361C79.4166 53.2185 79.4008 53.2003 79.4008 53.178V52.5322C79.4008 52.5098 79.4167 52.4917 79.4361 52.4917H80.5428ZM80.5428 52.3916H79.4361C79.3683 52.3916 79.3135 52.4545 79.3135 52.5322V53.178C79.3135 53.2557 79.3683 53.3186 79.4361 53.3186H80.5428C80.6106 53.3186 80.6654 53.2557 80.6654 53.178V52.5322C80.6654 52.4546 80.6106 52.3916 80.5428 52.3916Z" fill="#EBEBEB"/>
<path d="M47.4809 49.4022C47.2379 49.4426 46.9949 49.469 46.752 49.4893C46.6305 49.5005 46.509 49.5094 46.3875 49.5159C46.266 49.5236 46.1445 49.5312 46.023 49.5345L46.1367 49.4242C46.117 49.5832 46.1014 49.743 46.0781 49.9013L46.013 50.3772L45.939 50.8513C45.9157 51.0096 45.8848 51.1666 45.8582 51.3242L45.7448 51.1704C45.8647 51.1736 45.9847 51.1816 46.1046 51.1891C46.2246 51.1955 46.3445 51.2047 46.4645 51.2158C46.7044 51.236 46.9443 51.2622 47.1841 51.3024C46.9442 51.3425 46.7044 51.3687 46.4645 51.389C46.3445 51.4 46.2246 51.4093 46.1046 51.4156C45.9847 51.4231 45.8647 51.431 45.7448 51.4344C45.6826 51.436 45.631 51.3796 45.6294 51.3082C45.6293 51.3012 45.6296 51.2944 45.6304 51.2877L45.6313 51.2807C45.651 51.1216 45.6666 50.9618 45.6896 50.8034L45.7547 50.3275L45.8286 49.8533C45.8518 49.6949 45.8825 49.538 45.9092 49.3804L45.9103 49.3739C45.9209 49.3114 45.9693 49.2685 46.0229 49.27C46.1444 49.2734 46.2659 49.2809 46.3874 49.2886C46.5089 49.2951 46.6304 49.304 46.7519 49.3153C46.9949 49.3354 47.2379 49.3619 47.4809 49.4022Z" fill="#B37823"/>
<path d="M47.1176 51.9314C46.8746 51.9717 46.6316 51.9982 46.3887 52.0184C46.2672 52.0297 46.1457 52.0386 46.0242 52.0451C45.9027 52.0528 45.7812 52.0603 45.6597 52.0637L45.7734 51.9533C45.7538 52.1123 45.7381 52.2721 45.7149 52.4305L45.6497 52.9064L45.5757 53.3805C45.5524 53.5388 45.5216 53.6957 45.4949 53.8534L45.3815 53.6997C45.5014 53.7029 45.6214 53.7109 45.7413 53.7184C45.8613 53.7248 45.9812 53.734 46.1012 53.745C46.3411 53.7653 46.581 53.7915 46.8208 53.8317C46.5809 53.8718 46.3411 53.898 46.1012 53.9183C45.9812 53.9293 45.8613 53.9386 45.7413 53.9449C45.6214 53.9524 45.5014 53.9603 45.3815 53.9636C45.3193 53.9653 45.2676 53.9088 45.2662 53.8375C45.266 53.8305 45.2663 53.8237 45.2672 53.817L45.2681 53.8098C45.2877 53.6508 45.3033 53.491 45.3264 53.3326L45.3915 52.8567L45.4654 52.3824C45.4886 52.224 45.5192 52.0672 45.5459 51.9095L45.547 51.9031C45.5576 51.8406 45.606 51.7976 45.6596 51.7991C45.7811 51.8024 45.9025 51.81 46.024 51.8177C46.1455 51.8242 46.267 51.8331 46.3885 51.8443C46.6317 51.8646 46.8746 51.891 47.1176 51.9314Z" fill="#B37823"/>
<path d="M36.041 45.8442C36.8097 45.6611 37.5783 45.5144 38.3554 45.387C38.7476 45.3223 39.1444 45.3012 39.5412 45.297C39.9381 45.2966 40.3348 45.3324 40.7289 45.387C41.1222 45.4501 41.5125 45.5388 41.8962 45.6547C42.2724 45.7752 42.6502 45.8885 43.0247 46.0163C43.7755 46.2642 44.5233 46.5259 45.2626 46.8262C44.4877 46.6876 43.7213 46.5104 42.958 46.3193C42.5755 46.2276 42.1961 46.1213 41.8152 46.0224C41.4414 45.9213 41.0639 45.8385 40.6831 45.7838C40.3029 45.7235 39.9198 45.6877 39.5359 45.6753C39.1518 45.658 38.7671 45.6703 38.3823 45.6969C37.6069 45.7648 36.8243 45.8261 36.041 45.8442Z" fill="#FFC34D"/>
<path d="M43.8091 44.6981C43.9156 44.4726 44.0315 44.2549 44.1469 44.0368C44.2666 43.818 44.4038 43.6083 44.5603 43.4186C44.8708 43.0358 45.2508 42.725 45.667 42.5045C45.8765 42.3977 46.0935 42.3104 46.3159 42.2484C46.5419 42.1895 46.7604 42.1529 46.9798 42.118C47.4191 42.0457 47.8601 41.9838 48.3059 41.9512C47.8802 42.1067 47.4497 42.2328 47.0176 42.3484C46.8019 42.4107 46.5819 42.4538 46.3787 42.5235C46.1721 42.5899 45.9699 42.6735 45.7759 42.7775C45.5797 42.8763 45.3928 42.9984 45.2139 43.1339C45.0331 43.267 44.8652 43.4219 44.7028 43.5852C44.5425 43.7513 44.3911 43.9297 44.2505 44.1228C44.1062 44.3169 43.9624 44.5114 43.8091 44.6981Z" fill="#FFC34D"/>
<path d="M50.3903 47.845C50.2624 47.845 50.1587 47.7261 50.1587 47.5795V47.4123C50.1587 47.3188 50.2248 47.243 50.3063 47.243H50.6217V47.5794C50.6217 47.7261 50.5181 47.845 50.3903 47.845Z" fill="#EBEBEB"/>
<path d="M51.757 47.243H50.3291V47.47H51.757V47.243Z" fill="#EBEBEB"/>
<path d="M51.757 47.697C51.8663 47.697 51.9549 47.5954 51.9549 47.47C51.9549 47.3446 51.8663 47.243 51.757 47.243C51.6477 47.243 51.5591 47.3446 51.5591 47.47C51.5591 47.5954 51.6477 47.697 51.757 47.697Z" fill="#EBEBEB"/>
<path d="M50.5345 48.1172C50.5345 48.2085 50.47 48.2825 50.3903 48.2825C50.3107 48.2825 50.2461 48.2085 50.2461 48.1172C50.2461 48.0259 50.3106 47.9518 50.3903 47.9518C50.47 47.9518 50.5345 48.0259 50.5345 48.1172Z" fill="#EBEBEB"/>
<path d="M50.4751 47.544C50.4751 47.5978 50.4371 47.6414 50.3901 47.6414C50.3433 47.6414 50.3052 47.5978 50.3052 47.544C50.3052 47.4903 50.3432 47.4466 50.3901 47.4466C50.437 47.4466 50.4751 47.4902 50.4751 47.544Z" fill="#7A7A7A"/>
<path d="M85.4545 59.5695H22.5454V60.226H85.4545V59.5695Z" fill="#474747"/>
</g>
<defs>
<filter id="filter0_d_36_30802" x="0" y="0" width="108" height="108" filterUnits="userSpaceOnUse" color-interpolation-filters="sRGB">
<feFlood flood-opacity="0" result="BackgroundImageFix"/>
<feColorMatrix in="SourceAlpha" type="matrix" values="0 0 0 0 0 0 0 0 0 0 0 0 0 0 0 0 0 0 127 0" result="hardAlpha"/>
<feOffset dy="4"/>
<feGaussianBlur stdDeviation="2"/>
<feComposite in2="hardAlpha" operator="out"/>
<feColorMatrix type="matrix" values="0 0 0 0 0 0 0 0 0 0 0 0 0 0 0 0 0 0 0.25 0"/>
<feBlend mode="normal" in2="BackgroundImageFix" result="effect1_dropShadow_36_30802"/>
<feBlend mode="normal" in="SourceGraphic" in2="effect1_dropShadow_36_30802" result="shape"/>
</filter>
<filter id="filter1_i_36_30802" x="16" y="12" width="76" height="80" filterUnits="userSpaceOnUse" color-interpolation-filters="sRGB">
<feFlood flood-opacity="0" result="BackgroundImageFix"/>
<feBlend mode="normal" in="SourceGraphic" in2="BackgroundImageFix" result="shape"/>
<feColorMatrix in="SourceAlpha" type="matrix" values="0 0 0 0 0 0 0 0 0 0 0 0 0 0 0 0 0 0 127 0" result="hardAlpha"/>
<feOffset dy="4"/>
<feGaussianBlur stdDeviation="2"/>
<feComposite in2="hardAlpha" operator="arithmetic" k2="-1" k3="1"/>
<feColorMatrix type="matrix" values="0 0 0 0 0 0 0 0 0 0 0 0 0 0 0 0 0 0 0.25 0"/>
<feBlend mode="normal" in2="shape" result="effect1_innerShadow_36_30802"/>
</filter>
<clipPath id="clip0_36_30802">
<rect width="68" height="52" fill="white" transform="translate(20 24)"/>
</clipPath>
</defs>
</svg>
