<svg width="56" height="56" viewBox="0 0 56 56" fill="none" xmlns="http://www.w3.org/2000/svg">
<g id="Telegram" clip-path="url(#clip0_21_61707)" filter="url(#filter0_d_21_61707)">
<path id="Container" fill-rule="evenodd" clip-rule="evenodd" d="M3.12587 7.39026C2 9.55764 2 12.4051 2 18.1V33.9C2 39.5949 2 42.4424 3.12587 44.6097C4.07462 46.4362 5.56382 47.9254 7.39026 48.8741C9.55764 50 12.4051 50 18.1 50H33.9C39.5949 50 42.4424 50 44.6097 48.8741C46.4362 47.9254 47.9254 46.4362 48.8741 44.6097C50 42.4424 50 39.5949 50 33.9V18.1C50 12.4051 50 9.55764 48.8741 7.39026C47.9254 5.56382 46.4362 4.07462 44.6097 3.12587C42.4424 2 39.5949 2 33.9 2H18.1C12.4051 2 9.55764 2 7.39026 3.12587C5.56382 4.07462 4.07462 5.56382 3.12587 7.39026ZM9.7527 24.3721L38.6509 13.226C39.9708 12.6269 41.2447 13.5432 40.7409 15.5632L35.8197 38.7536C35.4762 40.4017 34.4801 40.796 33.1006 40.0349L25.6036 34.4958L25.4621 34.6334C23.759 36.2892 22.2587 37.748 22.0002 38.0009L21.9725 38.028C21.5676 38.4239 21.2332 38.7508 20.4999 38.7508C19.7387 38.7508 19.6752 38.5256 19.5223 37.9832C19.48 37.8332 19.4308 37.6589 19.3582 37.4584L16.6005 29.0036L9.39319 26.754C7.79205 26.2635 7.78035 25.1634 9.7527 24.3721ZM33.9769 18.2375L17.7316 28.4868L20.4691 36.8794L21.0107 31.1026L34.921 18.552C35.5315 18.0101 34.7879 17.7457 33.9769 18.2375Z" fill="#F8CE7B"/>
</g>
<defs>
<filter id="filter0_d_21_61707" x="0" y="0" width="56" height="56" filterUnits="userSpaceOnUse" color-interpolation-filters="sRGB">
<feFlood flood-opacity="0" result="BackgroundImageFix"/>
<feColorMatrix in="SourceAlpha" type="matrix" values="0 0 0 0 0 0 0 0 0 0 0 0 0 0 0 0 0 0 127 0" result="hardAlpha"/>
<feOffset dx="2" dy="2"/>
<feGaussianBlur stdDeviation="2"/>
<feComposite in2="hardAlpha" operator="out"/>
<feColorMatrix type="matrix" values="0 0 0 0 0 0 0 0 0 0 0 0 0 0 0 0 0 0 0.25 0"/>
<feBlend mode="normal" in2="BackgroundImageFix" result="effect1_dropShadow_21_61707"/>
<feBlend mode="normal" in="SourceGraphic" in2="effect1_dropShadow_21_61707" result="shape"/>
</filter>
<clipPath id="clip0_21_61707">
<rect width="48" height="48" fill="white" transform="translate(2 2)"/>
</clipPath>
</defs>
</svg>
