<svg width="56" height="56" viewBox="0 0 56 56" fill="none" xmlns="http://www.w3.org/2000/svg">
<g id="WhatsApp" filter="url(#filter0_d_21_61706)">
<path id="Container" fill-rule="evenodd" clip-rule="evenodd" d="M3.12587 7.39026C2 9.55764 2 12.4051 2 18.1V33.9C2 39.5949 2 42.4424 3.12587 44.6097C4.07462 46.4362 5.56382 47.9254 7.39026 48.8741C9.55764 50 12.4051 50 18.1 50H33.9C39.5949 50 42.4424 50 44.6097 48.8741C46.4362 47.9254 47.9254 46.4362 48.8741 44.6097C50 42.4424 50 39.5949 50 33.9V18.1C50 12.4051 50 9.55764 48.8741 7.39026C47.9254 5.56382 46.4362 4.07462 44.6097 3.12587C42.4424 2 39.5949 2 33.9 2H18.1C12.4051 2 9.55764 2 7.39026 3.12587C5.56382 4.07462 4.07462 5.56382 3.12587 7.39026ZM38.6254 13.5794C35.6016 10.5535 31.6426 8.80146 27.3938 8.59265L26.5404 8.57153C17.124 8.57153 9.4602 16.2311 9.45642 25.6458C9.45519 28.6554 10.2419 31.5927 11.7369 34.1823L9.31317 43.0307L18.3696 40.6562C20.8649 42.0166 23.6743 42.7335 26.5336 42.7345H26.5407C35.9561 42.7345 43.6206 35.0742 43.6245 25.6593C43.6262 21.0969 41.8508 16.8068 38.6254 13.5794ZM19.3078 37.8725L18.7892 37.5649L13.415 38.974L14.8495 33.7368L14.5119 33.1997C13.0905 30.9402 12.3398 28.3285 12.3409 25.6467C12.344 17.8217 18.7139 11.4555 26.5463 11.4555C30.3389 11.4568 33.904 12.935 36.585 15.6178C39.2659 18.3004 40.7414 21.8661 40.7399 25.6583C40.7368 33.4839 34.367 39.8508 26.5406 39.8508H26.5348C23.9869 39.8498 21.4879 39.1656 19.3078 37.8725ZM34.5627 29.3356C34.8604 29.4794 35.0615 29.5764 35.1473 29.7198C35.2541 29.8977 35.2541 30.7519 34.8984 31.7487C34.5427 32.7452 32.8373 33.6549 32.0172 33.7774C31.2816 33.8873 30.3511 33.933 29.3285 33.6083C28.7086 33.4117 27.9134 33.1492 26.895 32.7096C22.8933 30.9824 20.1889 27.1059 19.6777 26.3731C19.6419 26.3217 19.6169 26.2858 19.6029 26.2672L19.5991 26.2622C19.3722 25.9595 17.8598 23.9419 17.8598 21.8536C17.8598 19.8881 18.8259 18.8579 19.2704 18.3838C19.3008 18.3514 19.3288 18.3216 19.3539 18.2943C19.7451 17.867 20.2076 17.7603 20.4922 17.7603C20.7767 17.7603 21.0616 17.763 21.3103 17.7754C21.3409 17.7769 21.3729 17.7767 21.4058 17.7765C21.6546 17.7751 21.9648 17.7733 22.2708 18.5078C22.3884 18.7902 22.5604 19.2089 22.7419 19.6506C23.1093 20.5446 23.5154 21.5328 23.5869 21.6758C23.6936 21.8894 23.7647 22.1385 23.6225 22.4232C23.6011 22.4661 23.5813 22.5065 23.5623 22.545C23.4555 22.7631 23.3769 22.9234 23.1956 23.135C23.1245 23.2181 23.051 23.3075 22.9774 23.397C22.8304 23.576 22.6833 23.755 22.5552 23.8825C22.3415 24.0952 22.1191 24.3262 22.3681 24.7533C22.6171 25.1804 23.4738 26.5775 24.7428 27.7089C26.1071 28.9251 27.2928 29.4392 27.8937 29.6997C28.0109 29.7505 28.1059 29.7917 28.1756 29.8266C28.6024 30.0401 28.8514 30.0045 29.1003 29.7198C29.3494 29.435 30.1675 28.4739 30.452 28.0468C30.7365 27.6198 31.0212 27.691 31.4124 27.8332C31.8037 27.9757 33.9024 29.0078 34.3293 29.2214C34.4126 29.2631 34.4905 29.3007 34.5627 29.3356Z" fill="#F8CE7B"/>
</g>
<defs>
<filter id="filter0_d_21_61706" x="0" y="0" width="56" height="56" filterUnits="userSpaceOnUse" color-interpolation-filters="sRGB">
<feFlood flood-opacity="0" result="BackgroundImageFix"/>
<feColorMatrix in="SourceAlpha" type="matrix" values="0 0 0 0 0 0 0 0 0 0 0 0 0 0 0 0 0 0 127 0" result="hardAlpha"/>
<feOffset dx="2" dy="2"/>
<feGaussianBlur stdDeviation="2"/>
<feComposite in2="hardAlpha" operator="out"/>
<feColorMatrix type="matrix" values="0 0 0 0 0 0 0 0 0 0 0 0 0 0 0 0 0 0 0.25 0"/>
<feBlend mode="normal" in2="BackgroundImageFix" result="effect1_dropShadow_21_61706"/>
<feBlend mode="normal" in="SourceGraphic" in2="effect1_dropShadow_21_61706" result="shape"/>
</filter>
</defs>
</svg>
